<svg width="52" height="52" viewBox="0 0 52 52" fill="none" xmlns="http://www.w3.org/2000/svg">
<rect width="52" height="52" rx="20" fill="#53C1FC"/>
<path d="M36.7999 24.8H27.2V15.1999C27.2 14.5377 26.6624 14 25.9999 14C25.3376 14 24.8 14.5377 24.8 15.1999V24.8H15.1999C14.5377 24.8 14 25.3376 14 25.9999C14 26.6624 14.5377 27.2 15.1999 27.2H24.8V36.7999C24.8 37.4623 25.3376 38 25.9999 38C26.6624 38 27.2 37.4623 27.2 36.7999V27.2H36.7999C37.4623 27.2 38 26.6624 38 25.9999C38 25.3376 37.4623 24.8 36.7999 24.8Z" fill="white"/>
</svg>
