<svg width="28" height="28" viewBox="0 0 28 28" fill="none" xmlns="http://www.w3.org/2000/svg">
<path d="M14.0025 25C12.459 25 10.9156 24.9948 9.37206 25C8.33463 25.0051 7.56542 24.5532 7.04924 23.6285C5.50069 20.8701 3.94201 18.122 2.38334 15.3688C1.87222 14.4649 1.87222 13.5714 2.38334 12.6623C3.94707 9.89349 5.50575 7.12467 7.05936 4.35065C7.57048 3.44156 8.32957 3 9.3417 3C12.4439 3 15.546 3 18.6532 3C19.6704 3 20.4295 3.44156 20.9406 4.35065C22.4943 7.11428 24.058 9.87271 25.6167 12.6311C26.1278 13.535 26.1278 14.4337 25.6167 15.3376C24.0529 18.1065 22.4943 20.8753 20.9406 23.6493C20.4295 24.5584 19.6704 25 18.6532 25C17.1047 25 15.5511 25 14.0025 25ZM9.95403 14.0078C9.94897 16.2727 11.7657 18.148 13.9722 18.1532C16.2343 18.1584 18.0409 16.3143 18.051 13.9922C18.0611 11.7428 16.2393 9.85193 14.0582 9.84674C11.7708 9.84154 9.95909 11.6805 9.95403 14.0078Z" fill="#BABEC7"/>
</svg>
