<svg width="34" height="34" viewBox="0 0 34 34" fill="none" xmlns="http://www.w3.org/2000/svg">
<path d="M25.4852 23.7882L18.6971 17.0001L25.4854 10.2118C25.9536 9.74356 25.9536 8.98318 25.4852 8.51474C25.0169 8.04646 24.2565 8.04646 23.7883 8.51474L17 15.303L10.2117 8.51474C9.74346 8.04646 8.98308 8.04646 8.5148 8.51474C8.04636 8.98318 8.04636 9.74356 8.51464 10.2118L15.3029 17.0001L8.5148 23.7882C8.04636 24.2566 8.04636 25.017 8.51464 25.4853C8.98308 25.9537 9.74346 25.9537 10.2119 25.4853L17 18.6972L23.7881 25.4853C24.2565 25.9537 25.0169 25.9537 25.4854 25.4853C25.9536 25.017 25.9536 24.2566 25.4852 23.7882Z" fill="white"/>
</svg>
