<svg width="52" height="52" viewBox="0 0 52 52" fill="none" xmlns="http://www.w3.org/2000/svg">
<rect width="52" height="52" rx="20" fill="#53C1FC"/>
<path d="M34.4852 32.7882L27.6971 26.0001L34.4854 19.2118C34.9536 18.7436 34.9536 17.9832 34.4852 17.5147C34.0169 17.0465 33.2565 17.0465 32.7883 17.5147L26 24.303L19.2117 17.5147C18.7435 17.0465 17.9831 17.0465 17.5148 17.5147C17.0464 17.9832 17.0464 18.7436 17.5146 19.2118L24.3029 26.0001L17.5148 32.7882C17.0464 33.2566 17.0464 34.017 17.5146 34.4853C17.9831 34.9537 18.7435 34.9537 19.2119 34.4853L26 27.6972L32.7881 34.4853C33.2565 34.9537 34.0169 34.9537 34.4854 34.4853C34.9536 34.017 34.9536 33.2566 34.4852 32.7882Z" fill="white"/>
</svg>
