<svg width="24" height="14" viewBox="0 0 24 14" fill="none" xmlns="http://www.w3.org/2000/svg">
<path d="M12.3782 0C14.1422 0.00972062 16.0961 0.641561 17.9351 1.65251C20.1838 2.88702 22.1028 4.51523 23.7519 6.43991C24.0617 6.79957 24.0867 7.1641 23.7968 7.49946C21.693 9.93934 19.2344 11.9369 16.1811 13.1666C13.0178 14.4351 9.90952 14.2213 6.8712 12.7583C4.26264 11.4995 2.09884 9.70604 0.239867 7.54806C-0.0799558 7.17868 -0.0799558 6.82388 0.239867 6.44963C2.20878 4.17501 4.50251 2.29407 7.30097 1.04497C8.79514 0.383965 10.3543 0 12.3782 0ZM22.1927 7.04259C21.9779 6.81902 21.8179 6.65377 21.658 6.48851C20.1189 4.93808 18.4198 3.60149 16.4259 2.63915C13.7474 1.34145 11.0289 1.18106 8.25544 2.33781C6.35649 3.13004 4.7124 4.28193 3.21322 5.65254C2.74848 6.08025 2.30872 6.5274 1.85398 6.96969C1.89395 7.02801 1.90894 7.05717 1.92893 7.07661C3.53305 8.768 5.31706 10.2358 7.43589 11.2856C8.75016 11.9321 10.1294 12.3598 11.6086 12.4327C13.0678 12.5056 14.452 12.1897 15.7863 11.6356C17.6153 10.8774 19.1994 9.7595 20.6586 8.4618C21.1733 8.00007 21.673 7.52862 22.1927 7.04259Z" fill="#3A3943"/>
<path d="M12.01 3.00004C14.2449 3.01004 16.0149 4.81501 15.9999 7.07497C15.9849 9.20994 14.1549 11.0149 12.015 10.9999C9.76501 10.9849 7.99004 9.19994 8.00004 6.94998C8.01004 4.78001 9.82501 2.99004 12.01 3.00004ZM12.01 4.60001C10.7 4.59002 9.61001 5.66 9.60001 6.95998C9.58501 8.29995 10.655 9.38993 11.985 9.39493C13.295 9.39993 14.3849 8.33495 14.3949 7.03497C14.4099 5.7 13.34 4.61001 12.01 4.60001Z" fill="#3A3943"/>
</svg>
