<svg width="24" height="18" viewBox="0 0 24 18" fill="none" xmlns="http://www.w3.org/2000/svg">
<path d="M5.62243 14.0785C4.89289 13.5539 4.19332 13.0742 3.52374 12.5595C2.3095 11.6201 1.21518 10.5457 0.235796 9.36148C-0.0640161 9.00171 -0.0840037 8.62195 0.210812 8.27216C2.3045 5.77373 4.74798 3.73 7.78608 2.47079C10.7342 1.24655 13.6724 1.32151 16.5706 2.64068C16.8154 2.75061 16.9553 2.72563 17.1402 2.53575C17.8898 1.76623 18.6543 1.0117 19.4138 0.252176C19.6437 0.0223192 19.9235 -0.0576309 20.2383 0.0423067C20.5331 0.137247 20.713 0.342119 20.773 0.641932C20.8379 0.956735 20.713 1.20658 20.4931 1.42644C19.4238 2.49078 18.3595 3.55511 17.2951 4.62444C13.0878 8.83181 8.8754 13.0442 4.66303 17.2466C4.50313 17.4065 4.26828 17.5314 4.04841 17.5764C3.71862 17.6463 3.41881 17.4414 3.2739 17.1466C3.12399 16.8368 3.17396 16.487 3.4338 16.2272C4.08839 15.5626 4.75297 14.908 5.41256 14.2484C5.47752 14.1935 5.55247 14.1385 5.62243 14.0785ZM15.6362 3.97485C15.5762 3.94986 15.5162 3.92488 15.4563 3.8999C13.1277 2.96048 10.8042 2.98047 8.48064 3.91489C6.48689 4.71938 4.76796 5.95361 3.20894 7.4177C2.74423 7.85243 2.3045 8.31714 1.83979 8.78185C3.31387 10.4008 4.92287 11.79 6.73673 12.8243C7.38633 12.1797 8.00594 11.5701 8.63055 10.9555C7.5912 9.29652 7.89601 7.34274 9.06528 6.07853C9.6649 5.42894 10.4144 5.0192 11.2789 4.86429C12.3232 4.67441 13.2926 4.88928 14.1721 5.43893C14.6668 4.94924 15.1415 4.47454 15.6362 3.97485ZM12.9529 6.64318C12.1883 6.20845 10.9441 6.43831 10.2645 7.14287C9.56497 7.86742 9.40507 9.04668 9.83979 9.76123C10.8741 8.72688 11.9085 7.68753 12.9529 6.64318Z" fill="white"/>
<path d="M22.1274 8.78274C21.2929 7.85832 20.4035 7.00385 19.4291 6.24932C19.1393 6.02446 18.9444 5.76463 19.0194 5.37987C19.1343 4.78024 19.8239 4.50042 20.2936 4.90017C21.1081 5.58474 21.8976 6.29929 22.6721 7.02884C23.0718 7.4036 23.4166 7.83833 23.7714 8.25307C24.0612 8.59286 24.0712 8.98262 23.7814 9.3224C21.6577 11.8408 19.1893 13.9045 16.1062 15.1588C14.2224 15.9233 12.2736 16.1931 10.2598 15.8383C9.81012 15.7584 9.5253 15.4985 9.49032 15.1138C9.45534 14.734 9.6852 14.3792 10.055 14.2743C10.1849 14.2393 10.3398 14.2293 10.4747 14.2493C12.6533 14.6491 14.6721 14.1544 16.6059 13.17C18.7096 12.0957 20.4785 10.5916 22.0675 8.86269C22.0924 8.8527 22.1024 8.82771 22.1274 8.78274Z" fill="white"/>
</svg>
