<svg width="54" height="54" viewBox="0 0 54 54" fill="none" xmlns="http://www.w3.org/2000/svg">
<path d="M0 20C0 8.95431 8.9543 0 20 0H34C45.0457 0 54 8.9543 54 20V34C54 45.0457 45.0457 54 34 54H20C8.95431 54 0 45.0457 0 34V20Z" fill="#53C1FC"/>
<g clip-path="url(#clip0)">
<path d="M12.0795 29.7104C11.846 30.0132 11.6644 30.2554 11.4654 30.4802C10.9551 31.0771 10.1334 31.1722 9.52788 30.6965C8.9397 30.2381 8.80996 29.425 9.26839 28.8022C10.2026 27.5566 11.154 26.3284 12.1141 25.1088C12.4601 24.6677 12.9359 24.5293 13.4721 24.7109C13.7576 24.806 14.043 24.9271 14.2766 25.1088C15.4097 25.9565 16.5255 26.8128 17.6326 27.6864C18.2987 28.214 18.3679 29.1136 17.8229 29.7104C17.3299 30.2553 16.5687 30.3245 15.9459 29.8748C15.574 29.6066 15.2194 29.3212 14.8561 29.0444C14.8128 29.0617 14.7696 29.0876 14.7263 29.1049C14.9772 29.9526 15.1761 30.8089 15.4875 31.6306C17.4164 36.7513 22.7619 40.0381 28.1939 39.45C31.9911 39.0348 34.9926 37.2616 37.1896 34.1304C37.5702 33.5855 38.0546 33.2741 38.7292 33.4125C39.7153 33.6201 40.1305 34.7186 39.5509 35.5922C38.3832 37.3481 36.9128 38.7839 35.1396 39.9171C26.2131 45.6085 14.3198 40.5744 12.1833 30.2121C12.166 30.0651 12.1314 29.9267 12.0795 29.7104Z" fill="white"/>
<path d="M41.9294 24.5813C42.1456 24.2959 42.3273 24.0624 42.5176 23.8375C43.0193 23.232 43.841 23.1195 44.4465 23.578C45.0519 24.0364 45.199 24.8668 44.7233 25.4982C43.7977 26.7351 42.8549 27.9461 41.9035 29.157C41.5142 29.6501 41.0298 29.7798 40.433 29.5636C40.1822 29.4684 39.9227 29.3473 39.7151 29.183C38.5906 28.3353 37.4748 27.4703 36.3504 26.6054C35.8746 26.2421 35.7189 25.7404 35.8573 25.1782C35.9871 24.6332 36.359 24.2786 36.9126 24.1575C37.3537 24.0537 37.7343 24.1835 38.0889 24.4516C38.4436 24.7197 38.7896 24.9879 39.1442 25.256C39.1875 25.2301 39.2307 25.2128 39.274 25.1868C39.0145 24.3132 38.8069 23.4136 38.4782 22.566C36.5061 17.4713 31.2384 14.2623 25.7977 14.8418C22.0351 15.2397 19.051 17.0129 16.8453 20.0835C16.655 20.343 16.4128 20.6025 16.136 20.7582C15.5911 21.0609 14.9424 20.9052 14.5272 20.4468C14.1034 19.9711 14.0601 19.2877 14.432 18.7255C15.4873 17.134 16.8021 15.7846 18.3763 14.7034C27.3374 8.53617 39.6026 13.4492 41.8256 24.0883C41.8343 24.2354 41.8775 24.3651 41.9294 24.5813Z" fill="white"/>
</g>
<defs>
<clipPath id="clip0">
<rect width="36" height="36" fill="white" transform="translate(9 9)"/>
</clipPath>
</defs>
</svg>
