<svg width="24" height="24" viewBox="0 0 24 24" fill="none" xmlns="http://www.w3.org/2000/svg">
<path d="M21.0668 2.93319C19.8311 1.69745 18.1506 1 16.4 1H7.6C5.84936 1 4.16894 1.69745 2.93319 2.93319C1.69745 4.16894 1 5.84936 1 7.6V16.4C1 18.1506 1.69745 19.8311 2.93319 21.0668C4.16894 22.3026 5.84936 23 7.6 23H16.4C18.1506 23 19.8311 22.3026 21.0668 21.0668C22.3026 19.8311 23 18.1506 23 16.4V7.6C23 5.84936 22.3026 4.16894 21.0668 2.93319ZM7.83404 14.8413C7.6983 14.8974 7.55787 14.9255 7.41277 14.9255C7.26766 14.9255 7.12723 14.8974 6.99149 14.8413C6.85574 14.7851 6.73872 14.7055 6.63574 14.6026L5.0817 13.0485C4.97872 12.9455 4.89447 12.8238 4.83362 12.6928C4.77745 12.557 4.74468 12.4119 4.74468 12.2668C4.74468 12.1217 4.77277 11.9766 4.82426 11.8409C4.88043 11.7051 4.96 11.5834 5.06298 11.4804C5.16596 11.3774 5.28766 11.2932 5.4234 11.2417C5.55915 11.1855 5.70426 11.1574 5.84936 11.1621C5.99447 11.1621 6.13957 11.1949 6.27532 11.2511C6.41106 11.3072 6.53277 11.3915 6.63106 11.4991L7.40808 12.2762L9.74383 9.94043C9.94979 9.73447 10.2306 9.61745 10.5209 9.61745C10.8111 9.61745 11.0919 9.73447 11.2979 9.94043C11.5038 10.1464 11.6209 10.4272 11.6209 10.7174C11.6209 11.0077 11.5038 11.2885 11.2979 11.4945L8.18511 14.6072C8.08681 14.7009 7.96511 14.7851 7.83404 14.8413ZM18.277 17.177C18.0711 17.383 17.7902 17.5 17.5 17.5H12C11.7098 17.5 11.4289 17.383 11.223 17.177C11.017 16.9711 10.9 16.6902 10.9 16.4C10.9 16.1098 11.017 15.8289 11.223 15.623C11.4289 15.417 11.7098 15.3 12 15.3H17.5C17.7902 15.3 18.0711 15.417 18.277 15.623C18.483 15.8289 18.6 16.1098 18.6 16.4C18.6 16.6902 18.483 16.9711 18.277 17.177ZM18.277 12.777C18.0711 12.983 17.7902 13.1 17.5 13.1H14.2C13.9098 13.1 13.6289 12.983 13.423 12.777C13.217 12.5711 13.1 12.2902 13.1 12C13.1 11.7098 13.217 11.4289 13.423 11.223C13.6289 11.017 13.9098 10.9 14.2 10.9H17.5C17.7902 10.9 18.0711 11.017 18.277 11.223C18.483 11.4289 18.6 11.7098 18.6 12C18.6 12.2902 18.483 12.5711 18.277 12.777ZM18.277 8.37702C18.0711 8.58298 17.7902 8.7 17.5 8.7H12C11.7098 8.7 11.4289 8.58298 11.223 8.37702C11.017 8.17106 10.9 7.89021 10.9 7.6C10.9 7.30979 11.017 7.02894 11.223 6.82298C11.4289 6.61702 11.7098 6.5 12 6.5H17.5C17.7902 6.5 18.0711 6.61702 18.277 6.82298C18.483 7.02894 18.6 7.30979 18.6 7.6C18.6 7.89021 18.483 8.17106 18.277 8.37702Z" fill="#B7BBC4"/>
</svg>
