<svg width="28" height="28" viewBox="0 0 28 28" fill="none" xmlns="http://www.w3.org/2000/svg">
<path d="M23.0668 4.93319C21.8311 3.69745 20.1506 3 18.4 3H9.6C7.84936 3 6.16894 3.69745 4.93319 4.93319C3.69745 6.16894 3 7.84936 3 9.6V18.4C3 20.1506 3.69745 21.8311 4.93319 23.0668C6.16894 24.3026 7.84936 25 9.6 25H18.4C20.1506 25 21.8311 24.3026 23.0668 23.0668C24.3026 21.8311 25 20.1506 25 18.4V9.6C25 7.84936 24.3026 6.16894 23.0668 4.93319ZM15.0017 14.8145V17.9974C15.0017 18.5498 14.557 18.9991 14 18.9991C13.443 18.9991 12.9983 18.5498 12.9983 17.9974V14.8145C11.8374 14.4026 10.9996 13.3026 10.9996 11.9966C10.9996 10.3443 12.3477 8.99617 14 8.99617C15.6523 8.99617 17.0004 10.3443 17.0004 11.9966C17.0004 13.3026 16.1626 14.4026 15.0017 14.8145Z" fill="#BABEC7"/>
</svg>
