<svg width="16" height="16" viewBox="0 0 16 16" fill="none" xmlns="http://www.w3.org/2000/svg">
<path d="M13.1164 6.1394H2.88383C2.37089 6.1394 1.95361 6.55672 1.95361 7.06962V15.0696C1.95361 15.5826 2.37093 15.9998 2.88383 15.9998H13.1164C13.6293 15.9998 14.0466 15.5825 14.0466 15.0696V7.06962C14.0466 6.55672 13.6293 6.1394 13.1164 6.1394ZM12.9303 14.8836H3.06989V7.25569H12.9304V14.8836H12.9303Z" fill="#3A3943"/>
<path d="M8.00002 0C5.48671 0 3.44189 2.06159 3.44189 4.59534V6.51162H4.55818V4.59534C4.55818 2.67703 6.10218 1.11628 8.00005 1.11628C9.89793 1.11628 11.4419 2.67703 11.4419 4.59534V6.51162H12.5582V4.59534C12.5582 2.06159 10.5135 0 8.00002 0Z" fill="#3A3943"/>
<path d="M7.90676 10.4185C7.59848 10.4185 7.34863 10.6683 7.34863 10.9766V12.2789C7.34863 12.5872 7.59851 12.837 7.90676 12.837C8.21501 12.837 8.46488 12.5871 8.46488 12.2789V10.9766C8.46491 10.6683 8.21504 10.4185 7.90676 10.4185Z" fill="#3A3943"/>
</svg>
