<svg width="16" height="16" viewBox="0 0 16 16" fill="none" xmlns="http://www.w3.org/2000/svg">
<path d="M15 3.81494C14.9892 4.69782 14.6971 5.39331 14.1239 5.96988C11.1458 8.94645 8.16767 11.923 5.18597 14.896C5.09222 14.9897 4.95161 15.0653 4.81821 15.0978C3.45896 15.4005 2.0997 15.6888 0.73684 15.9843C0.286159 16.0815 -0.0815969 15.714 0.0157502 15.2671C0.315003 13.9086 0.603439 12.5464 0.902691 11.1915C0.931534 11.0654 0.996433 10.9284 1.08657 10.8347C3.4878 8.43113 5.88903 6.03475 8.29386 3.63476C8.93924 2.98971 9.55577 2.31224 10.2408 1.71404C11.9282 0.243781 14.5241 1.1663 14.9459 3.36449C14.9784 3.53386 14.9892 3.70683 15 3.81494ZM1.33895 14.6509C1.37861 14.6473 1.40385 14.6509 1.42548 14.6437C2.37732 14.4419 3.32555 14.2401 4.27379 14.0311C4.38195 14.0059 4.49732 13.941 4.57664 13.8617C6.77236 11.6744 8.96448 9.48338 11.1566 7.296C11.2035 7.24916 11.2648 7.22033 11.308 7.1915C10.4643 6.34826 9.65312 5.53745 8.83829 4.72304C8.83108 4.73025 8.81305 4.74106 8.79502 4.75908C6.55604 6.9969 4.31705 9.23113 2.08167 11.4726C2.0312 11.523 1.99514 11.6023 1.97712 11.6708C1.87977 12.0852 1.79324 12.5032 1.7031 12.9176C1.58412 13.4942 1.46514 14.0671 1.33895 14.6509ZM12.1156 6.2906C12.5267 5.8906 12.9521 5.49421 13.3631 5.0798C14.0193 4.41674 14.0013 3.32124 13.3379 2.66179C12.6745 2.00233 11.5856 1.99873 10.9186 2.65098C10.5401 3.02215 10.1687 3.39332 9.79373 3.76809C9.75768 3.80413 9.72523 3.84737 9.69999 3.87259C10.5148 4.687 11.3188 5.4906 12.1156 6.2906Z" fill="#3A3943"/>
</svg>
