<svg width="24" height="24" viewBox="0 0 24 24" fill="none" xmlns="http://www.w3.org/2000/svg">
<path d="M22.5 5.7224C22.4838 7.04672 22.0457 8.08996 21.1858 8.95482C16.7187 13.4197 12.2515 17.8845 7.77895 22.344C7.63834 22.4845 7.42742 22.598 7.22731 22.6467C5.18843 23.1007 3.14955 23.5331 1.10526 23.9764C0.429238 24.1223 -0.122395 23.571 0.0236253 22.9007C0.472504 20.8629 0.905158 18.8196 1.35404 16.7872C1.3973 16.598 1.49465 16.3926 1.62985 16.2521C5.2317 12.6467 8.83354 9.05212 12.4408 5.45214C13.4089 4.48457 14.3337 3.46836 15.3612 2.57107C17.8922 0.365671 21.7861 1.74945 22.4189 5.04673C22.4676 5.30078 22.4838 5.56024 22.5 5.7224ZM2.00843 21.9764C2.06792 21.971 2.10577 21.9764 2.13822 21.9656C3.56598 21.6629 4.98833 21.3602 6.41068 21.0467C6.57293 21.0088 6.74599 20.9115 6.86497 20.7926C10.1585 17.5115 13.4467 14.2251 16.7349 10.944C16.8052 10.8737 16.8971 10.8305 16.962 10.7872C15.6965 9.52239 14.4797 8.30618 13.2574 7.08456C13.2466 7.09537 13.2196 7.11159 13.1925 7.13862C9.83405 10.4954 6.47558 13.8467 3.12251 17.2088C3.0468 17.2845 2.99271 17.4034 2.96567 17.5061C2.81965 18.1278 2.68986 18.7548 2.55465 19.3764C2.37618 20.2413 2.19771 21.1007 2.00843 21.9764ZM18.1735 9.4359C18.79 8.8359 19.4282 8.24131 20.0447 7.61969C21.029 6.6251 21.0019 4.98187 20.0068 3.99268C19.0117 3.0035 17.3785 2.99809 16.3779 3.97647C15.8101 4.53322 15.253 5.08998 14.6906 5.65213C14.6365 5.70619 14.5878 5.77105 14.55 5.80889C15.7722 7.03051 16.9783 8.23591 18.1735 9.4359Z" fill="white"/>
</svg>
