<svg width="36" height="36" viewBox="0 0 36 36" fill="none" xmlns="http://www.w3.org/2000/svg">
<g clip-path="url(#clip0)">
<path d="M3.07954 20.7104C2.846 21.0132 2.66435 21.2554 2.46541 21.4802C1.95508 22.0771 1.13336 22.1722 0.527881 21.6965C-0.0602979 21.2381 -0.190043 20.425 0.26839 19.8022C1.20256 18.5566 2.15402 17.3284 3.11414 16.1088C3.46013 15.6677 3.93586 15.5293 4.47214 15.7109C4.75758 15.806 5.04302 15.9271 5.27656 16.1088C6.40967 16.9565 7.52548 17.8128 8.63264 18.6864C9.29867 19.214 9.36786 20.1136 8.82293 20.7104C8.3299 21.2553 7.56873 21.3245 6.94595 20.8748C6.57401 20.6066 6.21938 20.3212 5.85609 20.0444C5.81284 20.0617 5.76959 20.0876 5.72634 20.1049C5.97718 20.9526 6.17613 21.8089 6.48752 22.6306C8.4164 27.7513 13.7619 31.0381 19.1939 30.45C22.9911 30.0348 25.9926 28.2616 28.1896 25.1304C28.5702 24.5855 29.0546 24.2741 29.7292 24.4125C30.7153 24.6201 31.1305 25.7186 30.5509 26.5922C29.3832 28.3481 27.9128 29.7839 26.1396 30.9171C17.2131 36.6085 5.31981 31.5744 3.18334 21.2121C3.16604 21.0651 3.13144 20.9267 3.07954 20.7104Z" fill="white"/>
<path d="M32.9294 15.5813C33.1456 15.2959 33.3273 15.0624 33.5176 14.8375C34.0193 14.232 34.841 14.1195 35.4465 14.578C36.0519 15.0364 36.199 15.8668 35.7233 16.4982C34.7977 17.7351 33.8549 18.9461 32.9035 20.157C32.5142 20.6501 32.0298 20.7798 31.433 20.5636C31.1822 20.4684 30.9227 20.3473 30.7151 20.183C29.5906 19.3353 28.4748 18.4703 27.3504 17.6054C26.8746 17.2421 26.7189 16.7404 26.8573 16.1782C26.9871 15.6332 27.359 15.2786 27.9126 15.1575C28.3537 15.0537 28.7343 15.1835 29.0889 15.4516C29.4436 15.7197 29.7896 15.9879 30.1442 16.256C30.1875 16.2301 30.2307 16.2128 30.274 16.1868C30.0145 15.3132 29.8069 14.4136 29.4782 13.566C27.5061 8.4713 22.2384 5.26227 16.7977 5.84179C13.0351 6.23968 10.051 8.01287 7.84531 11.0835C7.65502 11.343 7.41283 11.6025 7.13604 11.7582C6.59111 12.0609 5.94238 11.9052 5.5272 11.4468C5.10336 10.9711 5.06011 10.2877 5.43205 9.7255C6.48731 8.13396 7.80206 6.78461 9.37631 5.7034C18.3374 -0.463828 30.6026 4.44919 32.8256 15.0883C32.8343 15.2354 32.8775 15.3651 32.9294 15.5813Z" fill="white"/>
</g>
<defs>
<clipPath id="clip0">
<rect width="36" height="36" fill="white"/>
</clipPath>
</defs>
</svg>
