<svg width="28" height="28" viewBox="0 0 28 28" fill="none" xmlns="http://www.w3.org/2000/svg">
<g clip-path="url(#clip0)">
<path d="M23.6161 4.85389L14.2022 2.02967C14.0704 1.99011 13.9299 1.99011 13.798 2.02967L4.38395 4.85389C4.08658 4.94309 3.8829 5.21684 3.8829 5.52734V15.8828C3.8829 17.2297 4.4282 18.6085 5.50356 19.9808C6.32486 21.029 7.46115 22.0814 8.88076 23.1091C11.2656 24.8354 13.614 25.8944 13.7128 25.9386C13.8042 25.9795 13.9022 26 14.0001 26C14.0981 26 14.1961 25.9796 14.2874 25.9386C14.3862 25.8944 16.7345 24.8354 19.1194 23.1091C20.539 22.0814 21.6752 21.029 22.4966 19.9808C23.5719 18.6085 24.1172 17.2297 24.1172 15.8828V5.52734C24.1172 5.21684 23.9136 4.94309 23.6161 4.85389Z" fill="#BABEC7"/>
</g>
<defs>
<clipPath id="clip0">
<rect width="24" height="24" fill="white" transform="translate(2 2)"/>
</clipPath>
</defs>
</svg>
