<svg width="16" height="15" viewBox="0 0 16 15" fill="none" xmlns="http://www.w3.org/2000/svg">
<g clip-path="url(#clip0)">
<path d="M0 13.2628C0.678125 12.0816 1.35 10.8972 2.03125 9.71907C3.82188 6.6097 5.61875 3.50032 7.40938 0.390947C7.54063 0.162822 7.70937 0.00657208 7.98438 0.000322084C8.25625 -0.00592792 8.44063 0.134697 8.575 0.365947C9.17188 1.40657 9.775 2.4472 10.375 3.48782C12.2063 6.6597 14.0344 9.83157 15.8656 13.0034C15.9156 13.0878 15.9563 13.1753 16 13.2628C16 13.3566 16 13.4503 16 13.5441C15.8562 13.9284 15.5656 14.0378 15.1781 14.0378C10.3938 14.0316 5.60938 14.0316 0.825 14.0378C0.434375 14.0378 0.14375 13.9316 0.003125 13.5472C0 13.4503 0 13.3566 0 13.2628ZM8 1.8722C5.89687 5.51907 3.80937 9.13782 1.7125 12.7691C5.91875 12.7691 10.0906 12.7691 14.2844 12.7691C12.1906 9.1347 10.1031 5.51907 8 1.8722Z" fill="#FF0000"/>
<path d="M8.625 7.33095C8.625 7.78408 8.625 8.2372 8.625 8.6872C8.625 9.08407 8.37187 9.35907 8.00312 9.3622C7.63125 9.36532 7.375 9.0872 7.375 8.68095C7.375 7.7747 7.375 6.87158 7.375 5.96533C7.375 5.55908 7.63125 5.28096 8.00312 5.28408C8.375 5.28721 8.625 5.56221 8.625 5.97158C8.625 6.42783 8.625 6.88095 8.625 7.33095Z" fill="#FF0000"/>
<path d="M8.00312 11.2375C7.65625 11.2375 7.375 10.9625 7.375 10.6187C7.375 10.275 7.65312 9.99063 7.99687 9.99063C8.3375 9.9875 8.625 10.2719 8.625 10.6125C8.625 10.9594 8.35 11.2375 8.00312 11.2375Z" fill="#FF0000"/>
</g>
<defs>
<clipPath id="clip0">
<rect width="16" height="14.0344" fill="white"/>
</clipPath>
</defs>
</svg>
